<mxGraphModel dx="1224" dy="824" grid="1" gridSize="10" guides="1" tooltips="1" connect="1" arrows="1" fold="1" page="1" pageScale="1" pageWidth="827" pageHeight="1169" math="0" shadow="0">
  <root>
    <mxCell id="0" />
    <mxCell id="1" parent="0" />
    <mxCell id="a9A-kaGHIIt9EINvmF-b-1" value="Recurrence" style="swimlane;fontStyle=2;align=center;verticalAlign=top;childLayout=stackLayout;horizontal=1;startSize=30;horizontalStack=0;resizeParent=1;resizeLast=0;collapsible=1;marginBottom=0;rounded=0;shadow=0;strokeWidth=1;" vertex="1" parent="1">
      <mxGeometry x="553.75" y="531" width="492.5" height="152" as="geometry">
        <mxRectangle x="47.5" y="80" width="160" height="26" as="alternateBounds" />
      </mxGeometry>
    </mxCell>
    <mxCell id="a9A-kaGHIIt9EINvmF-b-2" value="" style="line;html=1;strokeWidth=1;align=left;verticalAlign=middle;spacingTop=-1;spacingLeft=3;spacingRight=3;rotatable=0;labelPosition=right;points=[];portConstraint=eastwest;" vertex="1" parent="a9A-kaGHIIt9EINvmF-b-1">
      <mxGeometry y="30" width="492.5" height="8" as="geometry" />
    </mxCell>
    <mxCell id="a9A-kaGHIIt9EINvmF-b-3" value="#getLastDayOfMonth() : int" style="text;align=left;verticalAlign=top;spacingLeft=4;spacingRight=4;overflow=hidden;rotatable=0;points=[[0,0.5],[1,0.5]];portConstraint=eastwest;" vertex="1" parent="a9A-kaGHIIt9EINvmF-b-1">
      <mxGeometry y="38" width="492.5" height="26" as="geometry" />
    </mxCell>
    <mxCell id="a9A-kaGHIIt9EINvmF-b-4" value="#checkIfDateAltered&lt;T extends Type&gt;(entry:T, checkDate:LocalDate):void" style="text;align=left;verticalAlign=top;spacingLeft=4;spacingRight=4;overflow=hidden;rotatable=0;points=[[0,0.5],[1,0.5]];portConstraint=eastwest;" vertex="1" parent="a9A-kaGHIIt9EINvmF-b-1">
      <mxGeometry y="64" width="492.5" height="26" as="geometry" />
    </mxCell>
    <mxCell id="a9A-kaGHIIt9EINvmF-b-5" value="+checkIncomeRecurrence(recurringIncome:Income, incomes:IncomeList):void " style="text;align=left;verticalAlign=top;spacingLeft=4;spacingRight=4;overflow=hidden;rotatable=0;points=[[0,0.5],[1,0.5]];portConstraint=eastwest;fontStyle=2" vertex="1" parent="a9A-kaGHIIt9EINvmF-b-1">
      <mxGeometry y="90" width="492.5" height="26" as="geometry" />
    </mxCell>
    <mxCell id="a9A-kaGHIIt9EINvmF-b-6" value="+checkSpendingRecurrence(recurringSpending:Spending, spendings:SpendingList):void " style="text;align=left;verticalAlign=top;spacingLeft=4;spacingRight=4;overflow=hidden;rotatable=0;points=[[0,0.5],[1,0.5]];portConstraint=eastwest;fontStyle=2" vertex="1" parent="a9A-kaGHIIt9EINvmF-b-1">
      <mxGeometry y="116" width="492.5" height="26" as="geometry" />
    </mxCell>
    <mxCell id="a9A-kaGHIIt9EINvmF-b-7" value="DailyRecurrence" style="swimlane;fontStyle=0;align=center;verticalAlign=top;childLayout=stackLayout;horizontal=1;startSize=26;horizontalStack=0;resizeParent=1;resizeLast=0;collapsible=1;marginBottom=0;rounded=0;shadow=0;strokeWidth=1;" vertex="1" parent="1">
      <mxGeometry x="40" y="801" width="490" height="90" as="geometry">
        <mxRectangle x="130" y="380" width="160" height="26" as="alternateBounds" />
      </mxGeometry>
    </mxCell>
    <mxCell id="a9A-kaGHIIt9EINvmF-b-8" value="" style="line;html=1;strokeWidth=1;align=left;verticalAlign=middle;spacingTop=-1;spacingLeft=3;spacingRight=3;rotatable=0;labelPosition=right;points=[];portConstraint=eastwest;" vertex="1" parent="a9A-kaGHIIt9EINvmF-b-7">
      <mxGeometry y="26" width="490" height="8" as="geometry" />
    </mxCell>
    <mxCell id="a9A-kaGHIIt9EINvmF-b-9" value="+checkIncomeRecurrence(recurringIncome:Income, incomes:IncomeList):void " style="text;align=left;verticalAlign=top;spacingLeft=4;spacingRight=4;overflow=hidden;rotatable=0;points=[[0,0.5],[1,0.5]];portConstraint=eastwest;fontStyle=0" vertex="1" parent="a9A-kaGHIIt9EINvmF-b-7">
      <mxGeometry y="34" width="490" height="26" as="geometry" />
    </mxCell>
    <mxCell id="a9A-kaGHIIt9EINvmF-b-10" value="+checkSpendingRecurrence(recurringSpending:Spending, spendings:SpendingList):void " style="text;align=left;verticalAlign=top;spacingLeft=4;spacingRight=4;overflow=hidden;rotatable=0;points=[[0,0.5],[1,0.5]];portConstraint=eastwest;fontStyle=2" vertex="1" parent="a9A-kaGHIIt9EINvmF-b-7">
      <mxGeometry y="60" width="490" height="26" as="geometry" />
    </mxCell>
    <mxCell id="a9A-kaGHIIt9EINvmF-b-11" value="" style="endArrow=block;endSize=10;endFill=0;shadow=0;strokeWidth=1;rounded=0;curved=0;edgeStyle=elbowEdgeStyle;elbow=vertical;" edge="1" parent="1" source="a9A-kaGHIIt9EINvmF-b-7" target="a9A-kaGHIIt9EINvmF-b-1">
      <mxGeometry width="160" relative="1" as="geometry">
        <mxPoint x="700" y="644" as="sourcePoint" />
        <mxPoint x="700" y="644" as="targetPoint" />
      </mxGeometry>
    </mxCell>
    <mxCell id="a9A-kaGHIIt9EINvmF-b-12" value="MonthlyRecurrence" style="swimlane;fontStyle=0;align=center;verticalAlign=top;childLayout=stackLayout;horizontal=1;startSize=26;horizontalStack=0;resizeParent=1;resizeLast=0;collapsible=1;marginBottom=0;rounded=0;shadow=0;strokeWidth=1;" vertex="1" parent="1">
      <mxGeometry x="540" y="801" width="520" height="90" as="geometry">
        <mxRectangle x="340" y="380" width="170" height="26" as="alternateBounds" />
      </mxGeometry>
    </mxCell>
    <mxCell id="a9A-kaGHIIt9EINvmF-b-13" value="" style="line;html=1;strokeWidth=1;align=left;verticalAlign=middle;spacingTop=-1;spacingLeft=3;spacingRight=3;rotatable=0;labelPosition=right;points=[];portConstraint=eastwest;" vertex="1" parent="a9A-kaGHIIt9EINvmF-b-12">
      <mxGeometry y="26" width="520" height="8" as="geometry" />
    </mxCell>
    <mxCell id="a9A-kaGHIIt9EINvmF-b-14" value="+checkIncomeRecurrence(recurringIncome:Income, incomes:IncomeList):void " style="text;align=left;verticalAlign=top;spacingLeft=4;spacingRight=4;overflow=hidden;rotatable=0;points=[[0,0.5],[1,0.5]];portConstraint=eastwest;fontStyle=2" vertex="1" parent="a9A-kaGHIIt9EINvmF-b-12">
      <mxGeometry y="34" width="520" height="26" as="geometry" />
    </mxCell>
    <mxCell id="a9A-kaGHIIt9EINvmF-b-15" value="+checkSpendingRecurrence(recurringSpending:Spending, spendings:SpendingList):void " style="text;align=left;verticalAlign=top;spacingLeft=4;spacingRight=4;overflow=hidden;rotatable=0;points=[[0,0.5],[1,0.5]];portConstraint=eastwest;fontStyle=2" vertex="1" parent="a9A-kaGHIIt9EINvmF-b-12">
      <mxGeometry y="60" width="520" height="30" as="geometry" />
    </mxCell>
    <mxCell id="a9A-kaGHIIt9EINvmF-b-16" value="" style="endArrow=block;endSize=10;endFill=0;shadow=0;strokeWidth=1;rounded=0;curved=0;edgeStyle=elbowEdgeStyle;elbow=vertical;" edge="1" parent="1" source="a9A-kaGHIIt9EINvmF-b-12" target="a9A-kaGHIIt9EINvmF-b-1">
      <mxGeometry width="160" relative="1" as="geometry">
        <mxPoint x="710" y="814" as="sourcePoint" />
        <mxPoint x="810" y="712" as="targetPoint" />
      </mxGeometry>
    </mxCell>
    <mxCell id="a9A-kaGHIIt9EINvmF-b-17" value="YearlyRecurrence" style="swimlane;fontStyle=0;align=center;verticalAlign=top;childLayout=stackLayout;horizontal=1;startSize=26;horizontalStack=0;resizeParent=1;resizeLast=0;collapsible=1;marginBottom=0;rounded=0;shadow=0;strokeWidth=1;" vertex="1" parent="1">
      <mxGeometry x="1080" y="801" width="490" height="90" as="geometry">
        <mxRectangle x="130" y="380" width="160" height="26" as="alternateBounds" />
      </mxGeometry>
    </mxCell>
    <mxCell id="a9A-kaGHIIt9EINvmF-b-18" value="" style="line;html=1;strokeWidth=1;align=left;verticalAlign=middle;spacingTop=-1;spacingLeft=3;spacingRight=3;rotatable=0;labelPosition=right;points=[];portConstraint=eastwest;" vertex="1" parent="a9A-kaGHIIt9EINvmF-b-17">
      <mxGeometry y="26" width="490" height="8" as="geometry" />
    </mxCell>
    <mxCell id="a9A-kaGHIIt9EINvmF-b-19" value="+checkIncomeRecurrence(recurringIncome:Income, incomes:IncomeList):void " style="text;align=left;verticalAlign=top;spacingLeft=4;spacingRight=4;overflow=hidden;rotatable=0;points=[[0,0.5],[1,0.5]];portConstraint=eastwest;fontStyle=2" vertex="1" parent="a9A-kaGHIIt9EINvmF-b-17">
      <mxGeometry y="34" width="490" height="26" as="geometry" />
    </mxCell>
    <mxCell id="a9A-kaGHIIt9EINvmF-b-20" value="+checkSpendingRecurrence(recurringSpending:Spending, spendings:SpendingList):void " style="text;align=left;verticalAlign=top;spacingLeft=4;spacingRight=4;overflow=hidden;rotatable=0;points=[[0,0.5],[1,0.5]];portConstraint=eastwest;fontStyle=2" vertex="1" parent="a9A-kaGHIIt9EINvmF-b-17">
      <mxGeometry y="60" width="490" height="30" as="geometry" />
    </mxCell>
    <mxCell id="a9A-kaGHIIt9EINvmF-b-21" value="" style="endArrow=block;endSize=10;endFill=0;shadow=0;strokeWidth=1;rounded=0;curved=0;edgeStyle=elbowEdgeStyle;elbow=vertical;exitX=0.5;exitY=0;exitDx=0;exitDy=0;entryX=0.5;entryY=1;entryDx=0;entryDy=0;" edge="1" parent="1" source="a9A-kaGHIIt9EINvmF-b-17" target="a9A-kaGHIIt9EINvmF-b-1">
      <mxGeometry width="160" relative="1" as="geometry">
        <mxPoint x="1010" y="801" as="sourcePoint" />
        <mxPoint x="810" y="681" as="targetPoint" />
      </mxGeometry>
    </mxCell>
    <mxCell id="a9A-kaGHIIt9EINvmF-b-23" style="edgeStyle=orthogonalEdgeStyle;rounded=0;orthogonalLoop=1;jettySize=auto;html=1;exitX=1;exitY=0.5;exitDx=0;exitDy=0;entryX=0;entryY=0.5;entryDx=0;entryDy=0;dashed=1;endArrow=open;endFill=0;" edge="1" parent="1" source="a9A-kaGHIIt9EINvmF-b-24" target="a9A-kaGHIIt9EINvmF-b-52">
      <mxGeometry relative="1" as="geometry" />
    </mxCell>
    <mxCell id="a9A-kaGHIIt9EINvmF-b-24" value="SpendingList" style="swimlane;fontStyle=0;align=center;verticalAlign=top;childLayout=stackLayout;horizontal=1;startSize=30;horizontalStack=0;resizeParent=1;resizeLast=0;collapsible=1;marginBottom=0;rounded=0;shadow=0;strokeWidth=1;" vertex="1" parent="1">
      <mxGeometry x="470" y="365" width="180" height="80" as="geometry">
        <mxRectangle x="47.5" y="80" width="160" height="26" as="alternateBounds" />
      </mxGeometry>
    </mxCell>
    <mxCell id="a9A-kaGHIIt9EINvmF-b-25" value="" style="line;html=1;strokeWidth=1;align=left;verticalAlign=middle;spacingTop=-1;spacingLeft=3;spacingRight=3;rotatable=0;labelPosition=right;points=[];portConstraint=eastwest;" vertex="1" parent="a9A-kaGHIIt9EINvmF-b-24">
      <mxGeometry y="30" width="180" height="20" as="geometry" />
    </mxCell>
    <mxCell id="a9A-kaGHIIt9EINvmF-b-26" value="+updateRecurrence():void" style="text;align=left;verticalAlign=top;spacingLeft=4;spacingRight=4;overflow=hidden;rotatable=0;points=[[0,0.5],[1,0.5]];portConstraint=eastwest;" vertex="1" parent="a9A-kaGHIIt9EINvmF-b-24">
      <mxGeometry y="50" width="180" height="30" as="geometry" />
    </mxCell>
    <mxCell id="a9A-kaGHIIt9EINvmF-b-28" style="edgeStyle=orthogonalEdgeStyle;rounded=0;orthogonalLoop=1;jettySize=auto;html=1;exitX=0;exitY=0.5;exitDx=0;exitDy=0;entryX=1;entryY=0.5;entryDx=0;entryDy=0;dashed=1;endArrow=open;endFill=0;" edge="1" parent="1" source="a9A-kaGHIIt9EINvmF-b-29" target="a9A-kaGHIIt9EINvmF-b-52">
      <mxGeometry relative="1" as="geometry" />
    </mxCell>
    <mxCell id="a9A-kaGHIIt9EINvmF-b-29" value="IncomeList" style="swimlane;fontStyle=0;align=center;verticalAlign=top;childLayout=stackLayout;horizontal=1;startSize=30;horizontalStack=0;resizeParent=1;resizeLast=0;collapsible=1;marginBottom=0;rounded=0;shadow=0;strokeWidth=1;" vertex="1" parent="1">
      <mxGeometry x="960" y="365" width="180" height="80" as="geometry">
        <mxRectangle x="47.5" y="80" width="160" height="26" as="alternateBounds" />
      </mxGeometry>
    </mxCell>
    <mxCell id="a9A-kaGHIIt9EINvmF-b-30" value="" style="line;html=1;strokeWidth=1;align=left;verticalAlign=middle;spacingTop=-1;spacingLeft=3;spacingRight=3;rotatable=0;labelPosition=right;points=[];portConstraint=eastwest;" vertex="1" parent="a9A-kaGHIIt9EINvmF-b-29">
      <mxGeometry y="30" width="180" height="20" as="geometry" />
    </mxCell>
    <mxCell id="a9A-kaGHIIt9EINvmF-b-31" value="+updateRecurrence():void" style="text;align=left;verticalAlign=top;spacingLeft=4;spacingRight=4;overflow=hidden;rotatable=0;points=[[0,0.5],[1,0.5]];portConstraint=eastwest;" vertex="1" parent="a9A-kaGHIIt9EINvmF-b-29">
      <mxGeometry y="50" width="180" height="30" as="geometry" />
    </mxCell>
    <mxCell id="a9A-kaGHIIt9EINvmF-b-32" value="Spending" style="swimlane;fontStyle=0;align=center;verticalAlign=top;childLayout=stackLayout;horizontal=1;startSize=30;horizontalStack=0;resizeParent=1;resizeLast=0;collapsible=1;marginBottom=0;rounded=0;shadow=0;strokeWidth=1;" vertex="1" parent="1">
      <mxGeometry x="230" y="380" width="180" height="50" as="geometry">
        <mxRectangle x="47.5" y="80" width="160" height="26" as="alternateBounds" />
      </mxGeometry>
    </mxCell>
    <mxCell id="a9A-kaGHIIt9EINvmF-b-33" value="" style="line;html=1;strokeWidth=1;align=left;verticalAlign=middle;spacingTop=-1;spacingLeft=3;spacingRight=3;rotatable=0;labelPosition=right;points=[];portConstraint=eastwest;" vertex="1" parent="a9A-kaGHIIt9EINvmF-b-32">
      <mxGeometry y="30" width="180" height="20" as="geometry" />
    </mxCell>
    <mxCell id="a9A-kaGHIIt9EINvmF-b-34" value="Income" style="swimlane;fontStyle=0;align=center;verticalAlign=top;childLayout=stackLayout;horizontal=1;startSize=30;horizontalStack=0;resizeParent=1;resizeLast=0;collapsible=1;marginBottom=0;rounded=0;shadow=0;strokeWidth=1;" vertex="1" parent="1">
      <mxGeometry x="1180" y="380" width="180" height="50" as="geometry">
        <mxRectangle x="47.5" y="80" width="160" height="26" as="alternateBounds" />
      </mxGeometry>
    </mxCell>
    <mxCell id="a9A-kaGHIIt9EINvmF-b-35" value="" style="line;html=1;strokeWidth=1;align=left;verticalAlign=middle;spacingTop=-1;spacingLeft=3;spacingRight=3;rotatable=0;labelPosition=right;points=[];portConstraint=eastwest;" vertex="1" parent="a9A-kaGHIIt9EINvmF-b-34">
      <mxGeometry y="30" width="180" height="20" as="geometry" />
    </mxCell>
    <mxCell id="a9A-kaGHIIt9EINvmF-b-36" value="*" style="text;html=1;resizable=0;points=[];;align=center;verticalAlign=middle;labelBackgroundColor=none;rounded=0;shadow=0;strokeWidth=1;fontSize=20;" connectable="0" vertex="1" parent="1">
      <mxGeometry x="1334.0023076923076" y="711.0015384615383" as="geometry">
        <mxPoint x="-167" y="-313" as="offset" />
      </mxGeometry>
    </mxCell>
    <mxCell id="a9A-kaGHIIt9EINvmF-b-37" value="*" style="text;html=1;resizable=0;points=[];;align=center;verticalAlign=middle;labelBackgroundColor=none;rounded=0;shadow=0;strokeWidth=1;fontSize=20;" connectable="0" vertex="1" parent="1">
      <mxGeometry x="930.0023076923076" y="790.0015384615383" as="geometry">
        <mxPoint x="-503" y="-391" as="offset" />
      </mxGeometry>
    </mxCell>
    <mxCell id="a9A-kaGHIIt9EINvmF-b-38" value="Type" style="swimlane;fontStyle=0;align=center;verticalAlign=top;childLayout=stackLayout;horizontal=1;startSize=30;horizontalStack=0;resizeParent=1;resizeLast=0;collapsible=1;marginBottom=0;rounded=0;shadow=0;strokeWidth=1;" vertex="1" parent="1">
      <mxGeometry x="655" y="60" width="290" height="280" as="geometry">
        <mxRectangle x="47.5" y="80" width="160" height="26" as="alternateBounds" />
      </mxGeometry>
    </mxCell>
    <mxCell id="a9A-kaGHIIt9EINvmF-b-39" value="-date:LocalDate" style="text;align=left;verticalAlign=top;spacingLeft=4;spacingRight=4;overflow=hidden;rotatable=0;points=[[0,0.5],[1,0.5]];portConstraint=eastwest;" vertex="1" parent="a9A-kaGHIIt9EINvmF-b-38">
      <mxGeometry y="30" width="290" height="30" as="geometry" />
    </mxCell>
    <mxCell id="a9A-kaGHIIt9EINvmF-b-40" value="-recurrenceFrequency:RecurrenceFreuency" style="text;align=left;verticalAlign=top;spacingLeft=4;spacingRight=4;overflow=hidden;rotatable=0;points=[[0,0.5],[1,0.5]];portConstraint=eastwest;" vertex="1" parent="a9A-kaGHIIt9EINvmF-b-38">
      <mxGeometry y="60" width="290" height="30" as="geometry" />
    </mxCell>
    <mxCell id="a9A-kaGHIIt9EINvmF-b-41" value="-lastRecurrence:LocalDate" style="text;align=left;verticalAlign=top;spacingLeft=4;spacingRight=4;overflow=hidden;rotatable=0;points=[[0,0.5],[1,0.5]];portConstraint=eastwest;" vertex="1" parent="a9A-kaGHIIt9EINvmF-b-38">
      <mxGeometry y="90" width="290" height="30" as="geometry" />
    </mxCell>
    <mxCell id="a9A-kaGHIIt9EINvmF-b-42" value="-dayOfRecurrence:int" style="text;align=left;verticalAlign=top;spacingLeft=4;spacingRight=4;overflow=hidden;rotatable=0;points=[[0,0.5],[1,0.5]];portConstraint=eastwest;" vertex="1" parent="a9A-kaGHIIt9EINvmF-b-38">
      <mxGeometry y="120" width="290" height="30" as="geometry" />
    </mxCell>
    <mxCell id="a9A-kaGHIIt9EINvmF-b-43" value="" style="line;html=1;strokeWidth=1;align=left;verticalAlign=middle;spacingTop=-1;spacingLeft=3;spacingRight=3;rotatable=0;labelPosition=right;points=[];portConstraint=eastwest;" vertex="1" parent="a9A-kaGHIIt9EINvmF-b-38">
      <mxGeometry y="150" width="290" height="10" as="geometry" />
    </mxCell>
    <mxCell id="a9A-kaGHIIt9EINvmF-b-44" value="+getDate():LocalDate" style="text;align=left;verticalAlign=top;spacingLeft=4;spacingRight=4;overflow=hidden;rotatable=0;points=[[0,0.5],[1,0.5]];portConstraint=eastwest;" vertex="1" parent="a9A-kaGHIIt9EINvmF-b-38">
      <mxGeometry y="160" width="290" height="30" as="geometry" />
    </mxCell>
    <mxCell id="a9A-kaGHIIt9EINvmF-b-45" value="+getRecurrenceFrequency():RecurrenceFrequency" style="text;align=left;verticalAlign=top;spacingLeft=4;spacingRight=4;overflow=hidden;rotatable=0;points=[[0,0.5],[1,0.5]];portConstraint=eastwest;" vertex="1" parent="a9A-kaGHIIt9EINvmF-b-38">
      <mxGeometry y="190" width="290" height="30" as="geometry" />
    </mxCell>
    <mxCell id="a9A-kaGHIIt9EINvmF-b-46" value="+getLastRecurrence():LocalDate" style="text;align=left;verticalAlign=top;spacingLeft=4;spacingRight=4;overflow=hidden;rotatable=0;points=[[0,0.5],[1,0.5]];portConstraint=eastwest;" vertex="1" parent="a9A-kaGHIIt9EINvmF-b-38">
      <mxGeometry y="220" width="290" height="30" as="geometry" />
    </mxCell>
    <mxCell id="a9A-kaGHIIt9EINvmF-b-47" value="+getDayOfRecurrence():int" style="text;align=left;verticalAlign=top;spacingLeft=4;spacingRight=4;overflow=hidden;rotatable=0;points=[[0,0.5],[1,0.5]];portConstraint=eastwest;" vertex="1" parent="a9A-kaGHIIt9EINvmF-b-38">
      <mxGeometry y="250" width="290" height="30" as="geometry" />
    </mxCell>
    <mxCell id="a9A-kaGHIIt9EINvmF-b-48" value="" style="endArrow=open;dashed=1;html=1;rounded=0;exitX=0.25;exitY=0;exitDx=0;exitDy=0;entryX=0.5;entryY=1;entryDx=0;entryDy=0;endFill=0;" edge="1" parent="1" source="a9A-kaGHIIt9EINvmF-b-1" target="a9A-kaGHIIt9EINvmF-b-24">
      <mxGeometry width="50" height="50" relative="1" as="geometry">
        <mxPoint x="840" y="450" as="sourcePoint" />
        <mxPoint x="890" y="400" as="targetPoint" />
      </mxGeometry>
    </mxCell>
    <mxCell id="a9A-kaGHIIt9EINvmF-b-49" value="" style="endArrow=open;dashed=1;html=1;rounded=0;exitX=0.75;exitY=0;exitDx=0;exitDy=0;entryX=0.5;entryY=1;entryDx=0;entryDy=0;endFill=0;" edge="1" parent="1" source="a9A-kaGHIIt9EINvmF-b-1" target="a9A-kaGHIIt9EINvmF-b-29">
      <mxGeometry width="50" height="50" relative="1" as="geometry">
        <mxPoint x="840" y="450" as="sourcePoint" />
        <mxPoint x="890" y="400" as="targetPoint" />
      </mxGeometry>
    </mxCell>
    <mxCell id="a9A-kaGHIIt9EINvmF-b-50" value="" style="edgeStyle=segmentEdgeStyle;endArrow=none;html=1;curved=0;rounded=0;endSize=8;startSize=8;startArrow=block;startFill=0;endFill=0;entryX=0.5;entryY=0;entryDx=0;entryDy=0;exitX=0;exitY=0.5;exitDx=0;exitDy=0;" edge="1" parent="1" source="a9A-kaGHIIt9EINvmF-b-38" target="a9A-kaGHIIt9EINvmF-b-32">
      <mxGeometry width="50" height="50" relative="1" as="geometry">
        <mxPoint x="410.00000000000045" y="220" as="sourcePoint" />
        <mxPoint x="360.00000000000045" y="270" as="targetPoint" />
      </mxGeometry>
    </mxCell>
    <mxCell id="a9A-kaGHIIt9EINvmF-b-51" value="" style="edgeStyle=segmentEdgeStyle;endArrow=none;html=1;curved=0;rounded=0;endSize=8;startSize=8;startArrow=block;startFill=0;endFill=0;entryX=0.5;entryY=0;entryDx=0;entryDy=0;exitX=1;exitY=0.5;exitDx=0;exitDy=0;" edge="1" parent="1" source="a9A-kaGHIIt9EINvmF-b-38" target="a9A-kaGHIIt9EINvmF-b-34">
      <mxGeometry width="50" height="50" relative="1" as="geometry">
        <mxPoint x="920" y="230" as="sourcePoint" />
        <mxPoint x="1310" y="365" as="targetPoint" />
      </mxGeometry>
    </mxCell>
    <mxCell id="a9A-kaGHIIt9EINvmF-b-52" value="Parser" style="swimlane;fontStyle=0;align=center;verticalAlign=top;childLayout=stackLayout;horizontal=1;startSize=30;horizontalStack=0;resizeParent=1;resizeLast=0;collapsible=1;marginBottom=0;rounded=0;shadow=0;strokeWidth=1;" vertex="1" parent="1">
      <mxGeometry x="693.5" y="365" width="220" height="80" as="geometry">
        <mxRectangle x="47.5" y="80" width="160" height="26" as="alternateBounds" />
      </mxGeometry>
    </mxCell>
    <mxCell id="a9A-kaGHIIt9EINvmF-b-53" value="" style="line;html=1;strokeWidth=1;align=left;verticalAlign=middle;spacingTop=-1;spacingLeft=3;spacingRight=3;rotatable=0;labelPosition=right;points=[];portConstraint=eastwest;" vertex="1" parent="a9A-kaGHIIt9EINvmF-b-52">
      <mxGeometry y="30" width="220" height="20" as="geometry" />
    </mxCell>
    <mxCell id="a9A-kaGHIIt9EINvmF-b-54" value="+parseRecurrence(entry:Type):void" style="text;align=left;verticalAlign=top;spacingLeft=4;spacingRight=4;overflow=hidden;rotatable=0;points=[[0,0.5],[1,0.5]];portConstraint=eastwest;fontStyle=4" vertex="1" parent="a9A-kaGHIIt9EINvmF-b-52">
      <mxGeometry y="50" width="220" height="30" as="geometry" />
    </mxCell>
    <mxCell id="a9A-kaGHIIt9EINvmF-b-55" value="" style="edgeStyle=segmentEdgeStyle;endArrow=open;html=1;curved=0;rounded=0;endSize=8;startSize=8;exitX=1;exitY=0.5;exitDx=0;exitDy=0;entryX=0.5;entryY=1;entryDx=0;entryDy=0;dashed=1;endFill=0;" edge="1" parent="1" source="a9A-kaGHIIt9EINvmF-b-4" target="a9A-kaGHIIt9EINvmF-b-34">
      <mxGeometry width="50" height="50" relative="1" as="geometry">
        <mxPoint x="1060" y="625" as="sourcePoint" />
        <mxPoint x="1110" y="575" as="targetPoint" />
      </mxGeometry>
    </mxCell>
    <mxCell id="a9A-kaGHIIt9EINvmF-b-56" value="" style="edgeStyle=segmentEdgeStyle;endArrow=open;html=1;curved=0;rounded=0;endSize=8;startSize=8;exitX=0;exitY=0.5;exitDx=0;exitDy=0;entryX=0.5;entryY=1;entryDx=0;entryDy=0;dashed=1;endFill=0;" edge="1" parent="1" source="a9A-kaGHIIt9EINvmF-b-4" target="a9A-kaGHIIt9EINvmF-b-32">
      <mxGeometry width="50" height="50" relative="1" as="geometry">
        <mxPoint x="513.9969230769233" y="618" as="sourcePoint" />
        <mxPoint x="289.99692307692334" y="440" as="targetPoint" />
      </mxGeometry>
    </mxCell>
    <mxCell id="a9A-kaGHIIt9EINvmF-b-57" value="" style="shape=note;whiteSpace=wrap;html=1;backgroundOutline=1;darkOpacity=0.05;rotation=-90;flipV=1;flipH=1;" vertex="1" parent="1">
      <mxGeometry x="1088" y="10" width="90" height="150" as="geometry" />
    </mxCell>
    <mxCell id="a9A-kaGHIIt9EINvmF-b-58" value="Some method and attributes are omitted due to irrelevance to Recurrence Component" style="text;html=1;align=center;verticalAlign=middle;whiteSpace=wrap;rounded=0;" vertex="1" parent="1">
      <mxGeometry x="1056" y="57" width="150" height="30" as="geometry" />
    </mxCell>
    <mxCell id="a9A-kaGHIIt9EINvmF-b-59" value="&lt;&lt;Enumeration&gt;&gt;&#xa;RecurrenceFrequency" style="swimlane;fontStyle=0;align=center;verticalAlign=top;childLayout=stackLayout;horizontal=1;startSize=40;horizontalStack=0;resizeParent=1;resizeLast=0;collapsible=1;marginBottom=0;rounded=0;shadow=0;strokeWidth=1;" vertex="1" parent="1">
      <mxGeometry x="80" y="100" width="200" height="160" as="geometry">
        <mxRectangle x="47.5" y="80" width="160" height="26" as="alternateBounds" />
      </mxGeometry>
    </mxCell>
    <mxCell id="a9A-kaGHIIt9EINvmF-b-60" value="NONE" style="text;align=left;verticalAlign=top;spacingLeft=4;spacingRight=4;overflow=hidden;rotatable=0;points=[[0,0.5],[1,0.5]];portConstraint=eastwest;" vertex="1" parent="a9A-kaGHIIt9EINvmF-b-59">
      <mxGeometry y="40" width="200" height="30" as="geometry" />
    </mxCell>
    <mxCell id="a9A-kaGHIIt9EINvmF-b-61" value="DAILY" style="text;align=left;verticalAlign=top;spacingLeft=4;spacingRight=4;overflow=hidden;rotatable=0;points=[[0,0.5],[1,0.5]];portConstraint=eastwest;" vertex="1" parent="a9A-kaGHIIt9EINvmF-b-59">
      <mxGeometry y="70" width="200" height="30" as="geometry" />
    </mxCell>
    <mxCell id="a9A-kaGHIIt9EINvmF-b-62" value="MONTHLY" style="text;align=left;verticalAlign=top;spacingLeft=4;spacingRight=4;overflow=hidden;rotatable=0;points=[[0,0.5],[1,0.5]];portConstraint=eastwest;" vertex="1" parent="a9A-kaGHIIt9EINvmF-b-59">
      <mxGeometry y="100" width="200" height="30" as="geometry" />
    </mxCell>
    <mxCell id="a9A-kaGHIIt9EINvmF-b-63" value="YEARLY" style="text;align=left;verticalAlign=top;spacingLeft=4;spacingRight=4;overflow=hidden;rotatable=0;points=[[0,0.5],[1,0.5]];portConstraint=eastwest;" vertex="1" parent="a9A-kaGHIIt9EINvmF-b-59">
      <mxGeometry y="130" width="200" height="30" as="geometry" />
    </mxCell>
    <mxCell id="a9A-kaGHIIt9EINvmF-b-64" value="" style="endArrow=open;html=1;endSize=12;startArrow=diamondThin;startSize=14;startFill=1;edgeStyle=orthogonalEdgeStyle;align=left;verticalAlign=bottom;rounded=0;exitX=0;exitY=0.5;exitDx=0;exitDy=0;entryX=1;entryY=0.5;entryDx=0;entryDy=0;" edge="1" parent="1" source="a9A-kaGHIIt9EINvmF-b-24" target="a9A-kaGHIIt9EINvmF-b-32">
      <mxGeometry x="-1" y="3" relative="1" as="geometry">
        <mxPoint x="370" y="510" as="sourcePoint" />
        <mxPoint x="530" y="510" as="targetPoint" />
      </mxGeometry>
    </mxCell>
    <mxCell id="a9A-kaGHIIt9EINvmF-b-65" value="" style="endArrow=open;html=1;endSize=12;startArrow=diamondThin;startSize=14;startFill=1;edgeStyle=orthogonalEdgeStyle;align=left;verticalAlign=bottom;rounded=0;exitX=1;exitY=0.5;exitDx=0;exitDy=0;" edge="1" parent="1" source="a9A-kaGHIIt9EINvmF-b-29">
      <mxGeometry x="-1" y="3" relative="1" as="geometry">
        <mxPoint x="1178" y="445" as="sourcePoint" />
        <mxPoint x="1180" y="405" as="targetPoint" />
      </mxGeometry>
    </mxCell>
  </root>
</mxGraphModel>
